# xmcd
# 
# Track frame offsets:
#     183
#     32285
#     79380
#     115010
#     126045
# 
# Disc length: 2162
# 
# Revision: 5
# Processed by: cddbd v1.5.2PL0 Copyright (c) Steve Scherf et al.
# Submitted via: fre:ac v1.0.31
# 
DISCID=32087005
DTITLE=Santana - Every Day I Have The Blues
DYEAR=1968
DGENRE=Blues
TTITLE0=Every Day I Have The Blues
TTITLE1=La Puesta Del Sol
TTITLE2=Jam In G Minor
TTITLE3=Coconut Grove, Hawaii
TTITLE4=Hot Tamales
EXTD=YEAR: 1968
EXTT0=
EXTT1=
EXTT2=
EXTT3=
EXTT4=
PLAYORDER=
